<svg xmlns="http://www.w3.org/2000/svg" width="100" height="100" fill-rule="evenodd" clip-rule="evenodd" image-rendering="optimizeQuality" shape-rendering="geometricPrecision" text-rendering="geometricPrecision" viewBox="0 0 201 201" id="linkedin">
  <rect width="201" height="201" fill="#379ad0" rx="19" ry="19"></rect>
  <path fill="#fefefe" d="M39 102v60h29V80H39zM54 39c-8 0-15 7-15 15 0 7 7 14 15 14 7 0 14-7 14-14 0-8-7-15-14-15zm107 66c-2-15-9-25-30-25-12 0-20 5-24 11V80H84v82h24v-41c0-10 2-21 15-21s14 13 14 22v40h25v-45c0-4 0-8-1-12z"></path>
</svg>
