<svg xmlns="http://www.w3.org/2000/svg" viewBox="0 0 24 24" id="facebook">
  <defs>
    <linearGradient id="a" x1="12" x2="12" y1="23" y2="1" gradientUnits="userSpaceOnUse">
      <stop offset="0" stop-color="#0066ef"></stop>
      <stop offset="1" stop-color="#00b2ff"></stop>
    </linearGradient>
  </defs>
  <g>
    <g>
      <path fill="url(#a)" d="M23 12c0 7.11-2.33 10.26-8.45 10.88A25.38 25.38 0 0 1 12 23h-1.09C3.7 22.71 1 19.66 1 12 1 4 4 1 12 1s11 3 11 11Z"></path>
      <path fill="#fff" d="M14.55 10.53v2.33h3.37l-.53 3.42h-2.84v6.6A25.38 25.38 0 0 1 12 23h-1.09v-6.7H7.83v-3.44h3.08v-2.57a4.68 4.68 0 0 1 1.24-3.41C13.89 5 18 6 18 6v2.86h-1.78a1.67 1.67 0 0 0-1.67 1.67Z"></path>
      <path fill="none" d="M0 0h24v24H0z"></path>
    </g>
  </g>
</svg>
