<svg xmlns="http://www.w3.org/2000/svg"  viewBox="0 0 50 50" width="50px" height="50px" baseProfile="basic"><polygon fill="#66e1ff" points="15,1.906 11.002,4.214 11,4.213 10.999,8.835 35,22.691 39,20.381 39,15.762"/><polygon fill="#5ccae6" points="39,15.762 15,1.906 11,4.215 35,18.072"/><polygon fill="#479db3" points="35,18.072 35,22.691 39,20.381 39,15.762"/><polygon fill="#66e1ff" points="15,27.309 11.002,29.617 11,29.616 10.999,34.238 35,48.094 39,45.785 39,41.166"/><polygon fill="#5ccae6" points="39,41.166 15,27.309 11,29.619 35,43.475"/><polygon fill="#479db3" points="35,43.475 35,48.094 39,45.785 39,41.166"/><polygon fill="#66e1ff" points="15,14.608 11.002,16.916 11,16.914 10.999,21.537 35,35.392 39,33.083 39,28.464"/><polygon fill="#5ccae6" points="39,28.464 15,14.608 11,16.917 35,30.774"/><polygon fill="#479db3" points="35,30.774 35,35.392 39,33.083 39,28.464"/></svg>